<svg width="184" height="35" viewBox="0 0 184 35" fill="none" xmlns="http://www.w3.org/2000/svg">
<path d="M0.12 34V0.399998H15.72C19.72 0.399998 22.952 1.536 25.416 3.808C27.912 6.048 29.16 8.832 29.16 12.16C29.16 15.488 27.912 18.288 25.416 20.56C22.952 22.8 19.72 23.92 15.72 23.92H7.32V34H0.12ZM7.32 17.2H15.48C17.464 17.2 19 16.736 20.088 15.808C21.176 14.88 21.72 13.664 21.72 12.16C21.72 10.656 21.176 9.44 20.088 8.512C19 7.584 17.464 7.12 15.48 7.12H7.32V17.2ZM34.9463 30.976C32.3863 28.448 31.1063 25.376 31.1063 21.76C31.1063 18.144 32.3863 15.088 34.9463 12.592C37.5063 10.064 40.7063 8.8 44.5463 8.8C48.3543 8.8 51.5383 10.064 54.0983 12.592C56.6903 15.088 57.9863 18.144 57.9863 21.76C57.9863 25.376 56.6903 28.448 54.0983 30.976C51.5383 33.472 48.3543 34.72 44.5463 34.72C40.7063 34.72 37.5063 33.472 34.9463 30.976ZM39.9383 16.576C38.6903 17.92 38.0663 19.648 38.0663 21.76C38.0663 23.872 38.6903 25.6 39.9383 26.944C41.1863 28.288 42.7223 28.96 44.5463 28.96C46.3703 28.96 47.9063 28.288 49.1543 26.944C50.4023 25.6 51.0263 23.872 51.0263 21.76C51.0263 19.648 50.4023 17.92 49.1543 16.576C47.9063 15.232 46.3703 14.56 44.5463 14.56C42.7223 14.56 41.1863 15.232 39.9383 16.576ZM61.8431 34V0.399998H68.5631V28.24H74.0831V34H61.8431ZM77.2181 34V0.399998H83.9381V28.24H89.4581V34H77.2181ZM93.0731 34V0.399998H100.273V13.6H115.153V0.399998H122.353V34H115.153V20.32H100.273V34H93.0731ZM128.124 24.4V9.52H134.844V23.44C134.844 25.232 135.276 26.608 136.14 27.568C137.036 28.496 138.284 28.96 139.884 28.96C141.484 28.96 142.844 28.352 143.964 27.136C145.084 25.92 145.644 24.368 145.644 22.48V9.52H152.364V34H145.644V30.64H145.404C145.02 31.376 144.428 32.064 143.628 32.704C141.9 34.048 139.932 34.72 137.724 34.72C134.684 34.72 132.316 33.84 130.62 32.08C128.956 30.32 128.124 27.76 128.124 24.4ZM157.656 34V0.399998H164.376V12.64H164.616C165.128 11.968 165.752 11.328 166.488 10.72C168.216 9.44 170.152 8.8 172.296 8.8C175.496 8.8 178.168 10 180.312 12.4C182.488 14.768 183.576 17.888 183.576 21.76C183.576 25.632 182.488 28.768 180.312 31.168C178.168 33.536 175.496 34.72 172.296 34.72C170.152 34.72 168.216 34.08 166.488 32.8C165.752 32.192 165.128 31.552 164.616 30.88H164.376V34H157.656ZM166.104 16.48C164.952 17.728 164.376 19.488 164.376 21.76C164.376 24.032 164.952 25.808 166.104 27.088C167.256 28.336 168.76 28.96 170.616 28.96C172.376 28.96 173.816 28.32 174.936 27.04C176.056 25.76 176.616 24 176.616 21.76C176.616 19.52 176.056 17.76 174.936 16.48C173.816 15.2 172.376 14.56 170.616 14.56C168.76 14.56 167.256 15.2 166.104 16.48Z" fill="url(#paint0_linear_367_197)"/>
<defs>
<linearGradient id="paint0_linear_367_197" x1="178.096" y1="33.4667" x2="-3.02618" y2="1.23597" gradientUnits="userSpaceOnUse">
<stop stop-color="#2C0E5E"/>
<stop offset="1" stop-color="#EC79AF"/>
</linearGradient>
</defs>
</svg>
